Simulation
nRows=24
nColumns=15
endheader
time  TH_x TH_y TH_z SC_y  SC_z  SC_x  AC_y  AC_z  AC_x  GH_y  GH_z  GH_yy  EL_x  PS_y
0.0  0.000000  0.000000  0.000000  -40.97484877243665  6.293857566463187  5.290427962726946  38.96789034214464  -1.1310363348184638  -7.349210456153024  84.95655493925996  7.425524696307417  -54.43194568239125  22.565945538693857  120.000000
0.05745  0.000000  0.000000  0.000000  -39.53425978957319  5.269361456066568  4.1707220699900045  40.047497573180806  -1.6252888577028224  -6.023857671090139  49.79962093343187  7.425722549037989  -22.12199432761807  22.01137930793929  120.000000
0.1149  0.000000  0.000000  0.000000  -38.070860275228405  4.051968022985082  2.863813866939076  41.266705701922604  -2.2639396859656826  -4.634582524807347  23.497188266206194  9.55849811454697  1.3314266165037607  21.63517476158142  120.000000
0.17235  0.000000  0.000000  0.000000  -36.66398715606175  2.6257334982419085  1.3896571664856343  42.616098519911525  -3.0201381067045556  -3.116049962136897  7.863647544337338  12.841783521855655  14.074058546195262  21.513018943452664  120.000000
0.2298  0.000000  0.000000  0.000000  -35.392938609183346  0.9796378952099537  -0.19348211714481017  44.11411126413408  -3.8551800756487746  -1.4109098696228937  -1.9039732582221018  16.831909252481054  20.89925465379351  21.654439437415064  120.000000
0.28725  0.000000  0.000000  0.000000  -34.31003833408085  -0.8539609594975243  -1.816000431427513  45.77243860589317  -4.725537662333569  0.46645719244229555  -8.557783068024353  21.431671691862256  24.5718567142468  22.00180888268741  120.000000
0.3447  0.000000  0.000000  0.000000  -33.47336070793387  -2.7770401117416386  -3.3857923121318487  47.53450681976705  -5.607438773187651  2.449631408335414  -13.3726261409368  26.594300881076457  26.397251151940285  22.457348103801724  120.000000
0.40215  0.000000  0.000000  0.000000  -32.93203589974707  -4.641134976446593  -4.805483063549822  49.29454639387433  -6.475923154341588  4.450495081636595  -16.98247249649744  32.22988223089285  27.042803346511437  22.901690966383107  120.000000
0.4596  0.000000  0.000000  0.000000  -32.70155503087094  -6.245732553734075  -6.0036726890461045  50.970175912035494  -7.29457068667014  6.411359489165857  -19.724604606371795  38.17466841383166  26.88126766460183  23.237826623008896  120.000000
0.51705  0.000000  0.000000  0.000000  -32.7388379831525  -7.417235111019556  -6.98957263950892  52.54279219582351  -7.94529001087731  8.347340892796662  -21.805435862312564  44.20292973256733  26.152715089018567  23.400700918982157  120.000000
0.5745  0.000000  0.000000  0.000000  -32.97900432180569  -8.046182739587211  -7.837976248223379  54.04506231965583  -8.228581168795543  10.290864946354874  -23.361614307264745  50.05819667245881  25.025476284239936  23.3705993924643  120.000000
0.63195  0.000000  0.000000  0.000000  -33.40075807673701  -8.09121627876026  -8.623792046236108  55.50561371392685  -7.950468432499994  12.227680833966916  -24.48398240707836  55.478014104231434  23.620861041990082  23.163210304538556  120.000000
0.6894  0.000000  0.000000  0.000000  -34.033808839065216  -7.5715474961886455  -9.404051685408122  56.92862665575488  -6.974857592124393  14.105120166500154  -25.217173216557697  60.217553543370165  22.014513479552207  22.8122369218912  120.000000
0.74685  0.000000  0.000000  0.000000  -34.9228692527467  -6.548695932890584  -10.204674543850262  58.29271090312716  -5.23202177832394  15.863660640066941  -25.563079064089543  64.07743839435176  20.239636921624715  22.36370443366337  120.000000
0.8043  0.000000  0.000000  0.000000  -36.062582473128316  -5.114281857478454  -10.999452185591757  59.55456796191629  -2.727206194563923  17.451557842899604  -25.52485847895218  66.92951076751507  18.304598537206562  21.86436722560516  120.000000
0.86175  0.000000  0.000000  0.000000  -37.36759124587893  -3.391311394715875  -11.713470605703924  60.651749078272736  0.45099338093119357  18.824373603891104  -25.165143720337262  68.743990375736  16.219217189798975  21.3490463565779  120.000000
0.9192  0.000000  0.000000  0.000000  -38.71545079310831  -1.5243275950822124  -12.246624745583741  61.520975685945054  4.134459109311277  19.960757145705365  -24.589829205346593  69.60339883500764  14.006582433506885  20.8362865417369  120.000000
0.97665  0.000000  0.000000  0.000000  -40.009956264993335  0.3491284177898644  -12.505821448024955  62.126179592027064  8.085285096134108  20.876544042964287  -23.892454381378915  69.70560373531966  11.71189228989013  20.33849418949723  120.000000
1.0341  0.000000  0.000000  0.000000  -41.207958025814236  2.1198160918400704  -12.427852186935146  62.454857606563955  12.020168795572966  21.622408583336377  -23.119010116896614  69.32518187140458  9.410426885488832  19.86791508096091  120.000000
1.09155  0.000000  0.000000  0.000000  -42.302590050999434  3.733196746882529  -11.97697163522835  62.52920173811934  15.653624366075082  22.25761970571546  -22.277881358280418  68.74172532194164  7.202848594244946  19.43105647195581  120.000000
1.149  0.000000  0.000000  0.000000  -43.30166698449786  5.188461552495382  -11.13116926766544  62.39805081283871  18.758307856149006  22.823199434946527  -21.38256406876042  68.16017276694666  5.210979142728446  19.026444347420036  120.000000
1.20645  0.000000  0.000000  0.000000  -44.22559899646943  6.503445229871472  -9.892170964845505  62.12850801263759  21.19889968410544  23.333349908597633  -20.463084879335803  67.68973685074015  3.5439878384288304  18.649181925567166  120.000000
1.2639  0.000000  0.000000  0.000000  -45.09667070715713  7.685918611756671  -8.310483854294699  61.801538740667674  22.9410473778412  23.774739643698137  -19.55696032990245  67.36734210077329  2.257226294406873  18.295287232243144  120.000000
1.32135  0.000000  0.000000  0.000000  -45.92613301812736  8.718459240680438  -6.496921456269616  61.490845815372666  24.043865535291214  24.122759010775503  -18.699991317679572  67.1798782619519  1.337656044199786  17.967067063578398  120.000000
